<svg width="112" height="42" viewBox="0 0 112 42" fill="none" xmlns="http://www.w3.org/2000/svg">
<path d="M46.1538 9.705C46.1538 15.0294 50.5102 19.3616 55.8588 19.3616C61.2075 19.3616 65.5154 15.0294 65.5154 9.705C65.5154 4.38056 61.1832 0 55.8588 0C50.5344 0 46.1538 4.35636 46.1538 9.705ZM52.6157 1.93616V17.4254C49.5663 16.1669 47.4365 13.1659 47.4365 9.705C47.4365 6.24411 49.5663 3.19466 52.6157 1.93616ZM64.2327 9.705C64.2327 13.1901 62.1029 16.1669 59.0777 17.4254V1.93616C62.1029 3.19466 64.2327 6.21991 64.2327 9.705ZM61.6431 11.6654C61.6431 12.343 61.4011 12.9965 60.917 13.4321L61.8367 14.376C62.5628 13.6499 62.9742 12.6818 62.9742 11.6654C62.9742 10.6731 62.5628 9.7292 61.8609 9.00314C60.8928 8.01086 60.8928 6.41353 61.8609 5.42125L60.9412 4.50157C59.4649 5.97789 59.4649 8.37389 60.917 9.85021C61.4011 10.3343 61.6431 10.9877 61.6431 11.6654ZM49.8809 14.376L50.8006 13.4321C50.3166 12.9723 50.0503 12.3188 50.0503 11.6654C50.0503 10.9877 50.3166 10.3343 50.8006 9.85021C52.2527 8.37389 52.2285 5.97789 50.7522 4.50157L49.8325 5.42125C50.8248 6.41353 50.8248 8.01086 49.8325 9.00314C49.1307 9.7292 48.7434 10.6731 48.7434 11.6654C48.7434 12.6818 49.1549 13.6499 49.8809 14.376ZM55.8588 1.28271C56.004 1.28271 56.125 1.28271 56.2702 1.30691V18.0547C56.125 18.0547 56.004 18.0547 55.8588 18.0547C55.7136 18.0547 55.5926 18.0547 55.4474 18.0547V1.33111C55.5684 1.28271 55.7136 1.28271 55.8588 1.28271ZM57.2383 1.42792C57.5045 1.45212 57.7708 1.52473 58.037 1.59733V17.7885C57.7708 17.8611 57.5045 17.9337 57.2383 17.9821V1.42792ZM53.608 17.7643V1.59733C53.8742 1.54893 54.1405 1.45212 54.4067 1.42792V17.9579C54.1405 17.9095 53.8742 17.8611 53.608 17.7643Z" fill="#865E41"/>
<path d="M46.1538 9.705C46.1538 15.0294 50.5102 19.3616 55.8588 19.3616C61.2075 19.3616 65.5154 15.0294 65.5154 9.705C65.5154 4.38056 61.1832 0 55.8588 0C50.5344 0 46.1538 4.35636 46.1538 9.705ZM52.6157 1.93616V17.4254C49.5663 16.1669 47.4365 13.1659 47.4365 9.705C47.4365 6.24411 49.5663 3.19466 52.6157 1.93616ZM64.2327 9.705C64.2327 13.1901 62.1029 16.1669 59.0777 17.4254V1.93616C62.1029 3.19466 64.2327 6.21991 64.2327 9.705ZM61.6431 11.6654C61.6431 12.343 61.4011 12.9965 60.917 13.4321L61.8367 14.376C62.5628 13.6499 62.9742 12.6818 62.9742 11.6654C62.9742 10.6731 62.5628 9.7292 61.8609 9.00314C60.8928 8.01086 60.8928 6.41353 61.8609 5.42125L60.9412 4.50157C59.4649 5.97789 59.4649 8.37389 60.917 9.85021C61.4011 10.3343 61.6431 10.9877 61.6431 11.6654ZM49.8809 14.376L50.8006 13.4321C50.3166 12.9723 50.0503 12.3188 50.0503 11.6654C50.0503 10.9877 50.3166 10.3343 50.8006 9.85021C52.2527 8.37389 52.2285 5.97789 50.7522 4.50157L49.8325 5.42125C50.8248 6.41353 50.8248 8.01086 49.8325 9.00314C49.1307 9.7292 48.7434 10.6731 48.7434 11.6654C48.7434 12.6818 49.1549 13.6499 49.8809 14.376ZM55.8588 1.28271C56.004 1.28271 56.125 1.28271 56.2702 1.30691V18.0547C56.125 18.0547 56.004 18.0547 55.8588 18.0547C55.7136 18.0547 55.5926 18.0547 55.4474 18.0547V1.33111C55.5684 1.28271 55.7136 1.28271 55.8588 1.28271ZM57.2383 1.42792C57.5045 1.45212 57.7708 1.52473 58.037 1.59733V17.7885C57.7708 17.8611 57.5045 17.9337 57.2383 17.9821V1.42792ZM53.608 17.7643V1.59733C53.8742 1.54893 54.1405 1.45212 54.4067 1.42792V17.9579C54.1405 17.9095 53.8742 17.8611 53.608 17.7643Z" fill="black" fill-opacity="0.8"/>
<path d="M0 31.0394V25.9506H3.39719V26.7867H1.05321V28.0516H3.05668V28.8803H1.05321V30.2034H3.47638V31.0394H0Z" fill="#865E41"/>
<path d="M0 31.0394V25.9506H3.39719V26.7867H1.05321V28.0516H3.05668V28.8803H1.05321V30.2034H3.47638V31.0394H0Z" fill="black" fill-opacity="0.8"/>
<path d="M7.63811 31.1339C6.50571 31.1339 5.7455 30.5087 5.73758 29.4982H6.74328C6.75119 29.9417 7.08379 30.247 7.63811 30.247C8.27953 30.247 8.53294 29.7963 8.53294 29.3601V26.8012H6.64033V25.9506H9.58614V29.3819C9.58614 30.3924 8.88928 31.1339 7.63811 31.1339Z" fill="#865E41"/>
<path d="M7.63811 31.1339C6.50571 31.1339 5.7455 30.5087 5.73758 29.4982H6.74328C6.75119 29.9417 7.08379 30.247 7.63811 30.247C8.27953 30.247 8.53294 29.7963 8.53294 29.3601V26.8012H6.64033V25.9506H9.58614V29.3819C9.58614 30.3924 8.88928 31.1339 7.63811 31.1339Z" fill="black" fill-opacity="0.8"/>
<path d="M12.4357 31.0394V25.9506H13.4889V31.0394H12.4357Z" fill="#865E41"/>
<path d="M12.4357 31.0394V25.9506H13.4889V31.0394H12.4357Z" fill="black" fill-opacity="0.8"/>
<path d="M16.4032 31.0394V25.9506H18.4779C19.6103 25.9506 20.3863 26.6122 20.3863 27.5718C20.3863 28.2769 19.935 28.8149 19.349 29.0548L20.5685 31.0394H19.3886L18.3512 29.222H17.4564V31.0394H16.4032ZM17.4564 28.3932H18.3987C18.9214 28.3932 19.3094 28.1097 19.3094 27.5718C19.3094 27.1138 18.9689 26.7794 18.3829 26.7794H17.4564V28.3932Z" fill="#865E41"/>
<path d="M16.4032 31.0394V25.9506H18.4779C19.6103 25.9506 20.3863 26.6122 20.3863 27.5718C20.3863 28.2769 19.935 28.8149 19.349 29.0548L20.5685 31.0394H19.3886L18.3512 29.222H17.4564V31.0394H16.4032ZM17.4564 28.3932H18.3987C18.9214 28.3932 19.3094 28.1097 19.3094 27.5718C19.3094 27.1138 18.9689 26.7794 18.3829 26.7794H17.4564V28.3932Z" fill="black" fill-opacity="0.8"/>
<path d="M25.6986 31.1339C24.0198 31.1339 22.7845 30.0071 22.7845 28.495C22.7845 26.9975 24.0277 25.8561 25.7065 25.8561C27.3853 25.8561 28.6286 27.012 28.6286 28.495C28.6286 29.9926 27.3774 31.1339 25.6986 31.1339ZM25.7065 30.2107C26.7676 30.2107 27.5279 29.4837 27.5279 28.495C27.5279 27.5209 26.7676 26.7794 25.7065 26.7794C24.6375 26.7794 23.8773 27.5209 23.8773 28.495C23.8773 29.4837 24.6375 30.2107 25.7065 30.2107Z" fill="#865E41"/>
<path d="M25.6986 31.1339C24.0198 31.1339 22.7845 30.0071 22.7845 28.495C22.7845 26.9975 24.0277 25.8561 25.7065 25.8561C27.3853 25.8561 28.6286 27.012 28.6286 28.495C28.6286 29.9926 27.3774 31.1339 25.6986 31.1339ZM25.7065 30.2107C26.7676 30.2107 27.5279 29.4837 27.5279 28.495C27.5279 27.5209 26.7676 26.7794 25.7065 26.7794C24.6375 26.7794 23.8773 27.5209 23.8773 28.495C23.8773 29.4837 24.6375 30.2107 25.7065 30.2107Z" fill="black" fill-opacity="0.8"/>
<path d="M35.018 31.0394V25.9506H36.0712V30.1816H38.3123V31.0394H35.018Z" fill="#865E41"/>
<path d="M35.018 31.0394V25.9506H36.0712V30.1816H38.3123V31.0394H35.018Z" fill="black" fill-opacity="0.8"/>
<path d="M40.9266 31.0394V25.9506H44.3237V26.7867H41.9798V28.0516H43.9832V28.8803H41.9798V30.2034H44.4029V31.0394H40.9266Z" fill="#865E41"/>
<path d="M40.9266 31.0394V25.9506H44.3237V26.7867H41.9798V28.0516H43.9832V28.8803H41.9798V30.2034H44.4029V31.0394H40.9266Z" fill="black" fill-opacity="0.8"/>
<path d="M47.0284 31.0394V25.9506H48.1766L50.5523 29.4328H50.5998V25.9506H51.6213V31.0394H50.4652L48.1054 27.5572H48.0579V31.0394H47.0284Z" fill="#865E41"/>
<path d="M47.0284 31.0394V25.9506H48.1766L50.5523 29.4328H50.5998V25.9506H51.6213V31.0394H50.4652L48.1054 27.5572H48.0579V31.0394H47.0284Z" fill="black" fill-opacity="0.8"/>
<path d="M54.5377 31.0394V25.9506H55.6859L58.0616 29.4328H58.1091V25.9506H59.1306V31.0394H57.9745L55.6147 27.5572H55.5672V31.0394H54.5377Z" fill="#865E41"/>
<path d="M54.5377 31.0394V25.9506H55.6859L58.0616 29.4328H58.1091V25.9506H59.1306V31.0394H57.9745L55.6147 27.5572H55.5672V31.0394H54.5377Z" fill="black" fill-opacity="0.8"/>
<path d="M64.6761 31.1339C62.9973 31.1339 61.7619 30.0071 61.7619 28.495C61.7619 26.9975 63.0052 25.8561 64.684 25.8561C66.3628 25.8561 67.606 27.012 67.606 28.495C67.606 29.9926 66.3549 31.1339 64.6761 31.1339ZM64.684 30.2107C65.7451 30.2107 66.5053 29.4837 66.5053 28.495C66.5053 27.5209 65.7451 26.7794 64.684 26.7794C63.6149 26.7794 62.8547 27.5209 62.8547 28.495C62.8547 29.4837 63.6149 30.2107 64.684 30.2107Z" fill="#865E41"/>
<path d="M64.6761 31.1339C62.9973 31.1339 61.7619 30.0071 61.7619 28.495C61.7619 26.9975 63.0052 25.8561 64.684 25.8561C66.3628 25.8561 67.606 27.012 67.606 28.495C67.606 29.9926 66.3549 31.1339 64.6761 31.1339ZM64.684 30.2107C65.7451 30.2107 66.5053 29.4837 66.5053 28.495C66.5053 27.5209 65.7451 26.7794 64.684 26.7794C63.6149 26.7794 62.8547 27.5209 62.8547 28.495C62.8547 29.4837 63.6149 30.2107 64.684 30.2107Z" fill="black" fill-opacity="0.8"/>
<path d="M69.3811 31.0394L71.1312 28.4369L69.4682 25.9506H70.6639L71.7805 27.6663H71.828L72.9525 25.9506H74.1482L72.4774 28.4369L74.2274 31.0394H73.0079L71.8201 29.2002H71.7726L70.5927 31.0394H69.3811Z" fill="#865E41"/>
<path d="M69.3811 31.0394L71.1312 28.4369L69.4682 25.9506H70.6639L71.7805 27.6663H71.828L72.9525 25.9506H74.1482L72.4774 28.4369L74.2274 31.0394H73.0079L71.8201 29.2002H71.7726L70.5927 31.0394H69.3811Z" fill="black" fill-opacity="0.8"/>
<path d="M80.4144 31.0394V25.9506H81.6893L83.3919 29.7309H83.4394L84.9757 25.9506H86.2506V31.0394H85.237V27.8626H85.1895L83.8591 31.0394H82.9405L81.4755 27.7826H81.428V31.0394H80.4144Z" fill="#865E41"/>
<path d="M80.4144 31.0394V25.9506H81.6893L83.3919 29.7309H83.4394L84.9757 25.9506H86.2506V31.0394H85.237V27.8626H85.1895L83.8591 31.0394H82.9405L81.4755 27.7826H81.428V31.0394H80.4144Z" fill="black" fill-opacity="0.8"/>
<path d="M91.2912 31.1339C89.9371 31.1339 89.0977 30.3342 89.0977 29.142V25.9506H90.1509V29.1348C90.1509 29.8108 90.5468 30.2252 91.2912 30.2252C92.0435 30.2252 92.4394 29.8108 92.4394 29.1275V25.9506H93.4847V29.1348C93.4847 30.327 92.6374 31.1339 91.2912 31.1339Z" fill="#865E41"/>
<path d="M91.2912 31.1339C89.9371 31.1339 89.0977 30.3342 89.0977 29.142V25.9506H90.1509V29.1348C90.1509 29.8108 90.5468 30.2252 91.2912 30.2252C92.0435 30.2252 92.4394 29.8108 92.4394 29.1275V25.9506H93.4847V29.1348C93.4847 30.327 92.6374 31.1339 91.2912 31.1339Z" fill="black" fill-opacity="0.8"/>
<path d="M98.0799 31.1339C96.8129 31.1339 95.9735 30.4433 95.9735 29.4328H96.9951C97.003 29.8908 97.4148 30.247 98.1116 30.247C98.7055 30.247 99.0856 30.0144 99.0856 29.6291C99.0856 28.4659 96.1398 29.4037 96.1398 27.3246C96.1398 26.5177 96.8367 25.8561 98.0562 25.8561C99.1094 25.8561 100.004 26.365 100.036 27.4264H98.9827C98.9748 27.0047 98.6501 26.7212 98.0562 26.7212C97.4702 26.7212 97.1851 26.9902 97.1851 27.3101C97.1851 28.3714 100.171 27.4991 100.171 29.5564C100.171 30.4578 99.4103 31.1339 98.0799 31.1339Z" fill="#865E41"/>
<path d="M98.0799 31.1339C96.8129 31.1339 95.9735 30.4433 95.9735 29.4328H96.9951C97.003 29.8908 97.4148 30.247 98.1116 30.247C98.7055 30.247 99.0856 30.0144 99.0856 29.6291C99.0856 28.4659 96.1398 29.4037 96.1398 27.3246C96.1398 26.5177 96.8367 25.8561 98.0562 25.8561C99.1094 25.8561 100.004 26.365 100.036 27.4264H98.9827C98.9748 27.0047 98.6501 26.7212 98.0562 26.7212C97.4702 26.7212 97.1851 26.9902 97.1851 27.3101C97.1851 28.3714 100.171 27.4991 100.171 29.5564C100.171 30.4578 99.4103 31.1339 98.0799 31.1339Z" fill="black" fill-opacity="0.8"/>
<path d="M102.764 31.0394V25.9506H103.818V31.0394H102.764Z" fill="#865E41"/>
<path d="M102.764 31.0394V25.9506H103.818V31.0394H102.764Z" fill="black" fill-opacity="0.8"/>
<path d="M109.252 31.1339C107.558 31.1339 106.362 30.0071 106.362 28.495C106.362 26.9975 107.565 25.8561 109.26 25.8561C110.685 25.8561 111.683 26.6631 111.968 27.7535H110.828C110.622 27.1647 110.02 26.7794 109.26 26.7794C108.215 26.7794 107.455 27.5136 107.455 28.495C107.455 29.491 108.215 30.2107 109.26 30.2107C110.012 30.2107 110.622 29.8326 110.844 29.2511H112C111.731 30.3488 110.678 31.1339 109.252 31.1339Z" fill="#865E41"/>
<path d="M109.252 31.1339C107.558 31.1339 106.362 30.0071 106.362 28.495C106.362 26.9975 107.565 25.8561 109.26 25.8561C110.685 25.8561 111.683 26.6631 111.968 27.7535H110.828C110.622 27.1647 110.02 26.7794 109.26 26.7794C108.215 26.7794 107.455 27.5136 107.455 28.495C107.455 29.491 108.215 30.2107 109.26 30.2107C110.012 30.2107 110.622 29.8326 110.844 29.2511H112C111.731 30.3488 110.678 31.1339 109.252 31.1339Z" fill="black" fill-opacity="0.8"/>
<path d="M22.1513 41.1189C21.3911 41.1189 20.8438 40.6621 20.8438 39.999H21.3759C21.381 40.3526 21.68 40.6326 22.1716 40.6326C22.5922 40.6326 22.876 40.446 22.876 40.1365C22.876 39.2081 20.9552 39.8958 20.9552 38.5107C20.9552 37.99 21.3911 37.5528 22.1412 37.5528C22.7443 37.5528 23.3474 37.8672 23.3575 38.5843H22.8051C22.8051 38.2454 22.5669 38.0293 22.1361 38.0293C21.7003 38.0293 21.4975 38.2552 21.4975 38.5008C21.4975 39.3309 23.4386 38.7071 23.4386 40.0972C23.4386 40.6719 22.9673 41.1189 22.1513 41.1189Z" fill="#865E41"/>
<path d="M22.1513 41.1189C21.3911 41.1189 20.8438 40.6621 20.8438 39.999H21.3759C21.381 40.3526 21.68 40.6326 22.1716 40.6326C22.5922 40.6326 22.876 40.446 22.876 40.1365C22.876 39.2081 20.9552 39.8958 20.9552 38.5107C20.9552 37.99 21.3911 37.5528 22.1412 37.5528C22.7443 37.5528 23.3474 37.8672 23.3575 38.5843H22.8051C22.8051 38.2454 22.5669 38.0293 22.1361 38.0293C21.7003 38.0293 21.4975 38.2552 21.4975 38.5008C21.4975 39.3309 23.4386 38.7071 23.4386 40.0972C23.4386 40.6719 22.9673 41.1189 22.1513 41.1189Z" fill="black" fill-opacity="0.8"/>
<path d="M25.6722 41.055V38.0882H24.6181V37.6167H27.2687V38.0882H26.2145V41.055H25.6722Z" fill="#865E41"/>
<path d="M25.6722 41.055V38.0882H24.6181V37.6167H27.2687V38.0882H26.2145V41.055H25.6722Z" fill="black" fill-opacity="0.8"/>
<path d="M28.6779 41.055V37.6167H29.9449C30.6696 37.6167 31.1359 38.0489 31.1359 38.6727C31.1359 39.1639 30.8217 39.5323 30.4314 39.6699L31.2372 41.055H30.6189L29.8942 39.7485H29.2252V41.055H28.6779ZM29.2252 39.2867H29.9195C30.2946 39.2867 30.5733 39.0804 30.5733 38.6727C30.5733 38.3387 30.3402 38.0735 29.8993 38.0735H29.2252V39.2867Z" fill="#865E41"/>
<path d="M28.6779 41.055V37.6167H29.9449C30.6696 37.6167 31.1359 38.0489 31.1359 38.6727C31.1359 39.1639 30.8217 39.5323 30.4314 39.6699L31.2372 41.055H30.6189L29.8942 39.7485H29.2252V41.055H28.6779ZM29.2252 39.2867H29.9195C30.2946 39.2867 30.5733 39.0804 30.5733 38.6727C30.5733 38.3387 30.3402 38.0735 29.8993 38.0735H29.2252V39.2867Z" fill="black" fill-opacity="0.8"/>
<path d="M32.7008 41.055V37.6167H33.2482V41.055H32.7008Z" fill="#865E41"/>
<path d="M32.7008 41.055V37.6167H33.2482V41.055H32.7008Z" fill="black" fill-opacity="0.8"/>
<path d="M34.9619 41.055V37.6167H35.5447L37.2273 40.1611H37.2577V37.6167H37.7899V41.055H37.202L35.5295 38.5107H35.4991V41.055H34.9619Z" fill="#865E41"/>
<path d="M34.9619 41.055V37.6167H35.5447L37.2273 40.1611H37.2577V37.6167H37.7899V41.055H37.202L35.5295 38.5107H35.4991V41.055H34.9619Z" fill="black" fill-opacity="0.8"/>
<path d="M41.1363 41.1189C40.067 41.1189 39.2915 40.3575 39.2915 39.3359C39.2915 38.324 40.0619 37.5528 41.1363 37.5528C41.9928 37.5528 42.6213 38.0489 42.8341 38.717H42.231C42.0638 38.324 41.6786 38.0538 41.1363 38.0538C40.371 38.0538 39.8592 38.604 39.8592 39.3359C39.8592 40.0776 40.3761 40.6228 41.1414 40.6228C41.7901 40.6228 42.2868 40.2298 42.3273 39.6699H41.0502V39.2229H42.9355C42.9558 40.4558 42.1499 41.1189 41.1363 41.1189Z" fill="#865E41"/>
<path d="M41.1363 41.1189C40.067 41.1189 39.2915 40.3575 39.2915 39.3359C39.2915 38.324 40.0619 37.5528 41.1363 37.5528C41.9928 37.5528 42.6213 38.0489 42.8341 38.717H42.231C42.0638 38.324 41.6786 38.0538 41.1363 38.0538C40.371 38.0538 39.8592 38.604 39.8592 39.3359C39.8592 40.0776 40.3761 40.6228 41.1414 40.6228C41.7901 40.6228 42.2868 40.2298 42.3273 39.6699H41.0502V39.2229H42.9355C42.9558 40.4558 42.1499 41.1189 41.1363 41.1189Z" fill="black" fill-opacity="0.8"/>
<path d="M45.4874 41.1189C44.7272 41.1189 44.1798 40.6621 44.1798 39.999H44.712C44.717 40.3526 45.016 40.6326 45.5076 40.6326C45.9283 40.6326 46.2121 40.446 46.2121 40.1365C46.2121 39.2081 44.2913 39.8958 44.2913 38.5107C44.2913 37.99 44.7272 37.5528 45.4772 37.5528C46.0803 37.5528 46.6834 37.8672 46.6936 38.5843H46.1412C46.1412 38.2454 45.903 38.0293 45.4722 38.0293C45.0363 38.0293 44.8336 38.2552 44.8336 38.5008C44.8336 39.3309 46.7747 38.7071 46.7747 40.0972C46.7747 40.6719 46.3033 41.1189 45.4874 41.1189Z" fill="#865E41"/>
<path d="M45.4874 41.1189C44.7272 41.1189 44.1798 40.6621 44.1798 39.999H44.712C44.717 40.3526 45.016 40.6326 45.5076 40.6326C45.9283 40.6326 46.2121 40.446 46.2121 40.1365C46.2121 39.2081 44.2913 39.8958 44.2913 38.5107C44.2913 37.99 44.7272 37.5528 45.4772 37.5528C46.0803 37.5528 46.6834 37.8672 46.6936 38.5843H46.1412C46.1412 38.2454 45.903 38.0293 45.4722 38.0293C45.0363 38.0293 44.8336 38.2552 44.8336 38.5008C44.8336 39.3309 46.7747 38.7071 46.7747 40.0972C46.7747 40.6719 46.3033 41.1189 45.4874 41.1189Z" fill="black" fill-opacity="0.8"/>
<path d="M50.45 41.055V37.6167H51.7575C52.4214 37.6167 52.8928 38.044 52.8928 38.6875C52.8928 39.326 52.4012 39.773 51.7575 39.773H50.9973V41.055H50.45ZM50.9973 39.3162H51.7068C52.0869 39.3162 52.3404 39.051 52.3404 38.6875C52.3404 38.3289 52.0869 38.0735 51.7068 38.0735H50.9973V39.3162Z" fill="#865E41"/>
<path d="M50.45 41.055V37.6167H51.7575C52.4214 37.6167 52.8928 38.044 52.8928 38.6875C52.8928 39.326 52.4012 39.773 51.7575 39.773H50.9973V41.055H50.45ZM50.9973 39.3162H51.7068C52.0869 39.3162 52.3404 39.051 52.3404 38.6875C52.3404 38.3289 52.0869 38.0735 51.7068 38.0735H50.9973V39.3162Z" fill="black" fill-opacity="0.8"/>
<path d="M54.3393 41.055V37.6167H55.6063C56.3311 37.6167 56.7973 38.0489 56.7973 38.6727C56.7973 39.1639 56.4831 39.5323 56.0929 39.6699L56.8987 41.055H56.2804L55.5556 39.7485H54.8867V41.055H54.3393ZM54.8867 39.2867H55.581C55.956 39.2867 56.2348 39.0804 56.2348 38.6727C56.2348 38.3387 56.0016 38.0735 55.5607 38.0735H54.8867V39.2867Z" fill="#865E41"/>
<path d="M54.3393 41.055V37.6167H55.6063C56.3311 37.6167 56.7973 38.0489 56.7973 38.6727C56.7973 39.1639 56.4831 39.5323 56.0929 39.6699L56.8987 41.055H56.2804L55.5556 39.7485H54.8867V41.055H54.3393ZM54.8867 39.2867H55.581C55.956 39.2867 56.2348 39.0804 56.2348 38.6727C56.2348 38.3387 56.0016 38.0735 55.5607 38.0735H54.8867V39.2867Z" fill="black" fill-opacity="0.8"/>
<path d="M59.9695 41.1189C58.9052 41.1189 58.1196 40.3575 58.1196 39.3359C58.1196 38.324 58.9102 37.5528 59.9745 37.5528C61.0439 37.5528 61.8244 38.3338 61.8244 39.3359C61.8244 40.3477 61.0388 41.1189 59.9695 41.1189ZM59.9745 40.6179C60.7195 40.6179 61.2618 40.0726 61.2618 39.3359C61.2618 38.6089 60.7195 38.0538 59.9745 38.0538C59.2295 38.0538 58.6872 38.6089 58.6872 39.3359C58.6872 40.0726 59.2295 40.6179 59.9745 40.6179Z" fill="#865E41"/>
<path d="M59.9695 41.1189C58.9052 41.1189 58.1196 40.3575 58.1196 39.3359C58.1196 38.324 58.9102 37.5528 59.9745 37.5528C61.0439 37.5528 61.8244 38.3338 61.8244 39.3359C61.8244 40.3477 61.0388 41.1189 59.9695 41.1189ZM59.9745 40.6179C60.7195 40.6179 61.2618 40.0726 61.2618 39.3359C61.2618 38.6089 60.7195 38.0538 59.9745 38.0538C59.2295 38.0538 58.6872 38.6089 58.6872 39.3359C58.6872 40.0726 59.2295 40.6179 59.9745 40.6179Z" fill="black" fill-opacity="0.8"/>
<path d="M63.3256 41.055V37.6167H64.4507C65.5809 37.6167 66.2448 38.3289 66.2448 39.3309C66.2448 40.3968 65.5809 41.055 64.4507 41.055H63.3256ZM63.873 40.5933H64.4406C65.1704 40.5933 65.6873 40.166 65.6873 39.3309C65.6873 38.5303 65.1805 38.0833 64.4406 38.0833H63.873V40.5933Z" fill="#865E41"/>
<path d="M63.3256 41.055V37.6167H64.4507C65.5809 37.6167 66.2448 38.3289 66.2448 39.3309C66.2448 40.3968 65.5809 41.055 64.4507 41.055H63.3256ZM63.873 40.5933H64.4406C65.1704 40.5933 65.6873 40.166 65.6873 39.3309C65.6873 38.5303 65.1805 38.0833 64.4406 38.0833H63.873V40.5933Z" fill="black" fill-opacity="0.8"/>
<path d="M69.0673 41.1189C68.2057 41.1189 67.6989 40.5884 67.6989 39.7976V37.6167H68.2463V39.7927C68.2463 40.3035 68.525 40.6277 69.0673 40.6277C69.6045 40.6277 69.8883 40.3035 69.8883 39.7878V37.6167H70.4306V39.7927C70.4306 40.5835 69.9137 41.1189 69.0673 41.1189Z" fill="#865E41"/>
<path d="M69.0673 41.1189C68.2057 41.1189 67.6989 40.5884 67.6989 39.7976V37.6167H68.2463V39.7927C68.2463 40.3035 68.525 40.6277 69.0673 40.6277C69.6045 40.6277 69.8883 40.3035 69.8883 39.7878V37.6167H70.4306V39.7927C70.4306 40.5835 69.9137 41.1189 69.0673 41.1189Z" fill="black" fill-opacity="0.8"/>
<path d="M73.7209 41.1189C72.6515 41.1189 71.8812 40.3575 71.8812 39.3359C71.8812 38.324 72.6566 37.5528 73.7209 37.5528C74.5875 37.5528 75.216 38.0588 75.4238 38.7759H74.8359C74.6788 38.3191 74.2378 38.0538 73.7209 38.0538C72.9962 38.0538 72.4488 38.604 72.4488 39.3359C72.4488 40.0776 72.9962 40.6179 73.7209 40.6179C74.2378 40.6179 74.6737 40.3575 74.8359 39.9007H75.4339C75.2362 40.6277 74.5825 41.1189 73.7209 41.1189Z" fill="#865E41"/>
<path d="M73.7209 41.1189C72.6515 41.1189 71.8812 40.3575 71.8812 39.3359C71.8812 38.324 72.6566 37.5528 73.7209 37.5528C74.5875 37.5528 75.216 38.0588 75.4238 38.7759H74.8359C74.6788 38.3191 74.2378 38.0538 73.7209 38.0538C72.9962 38.0538 72.4488 38.604 72.4488 39.3359C72.4488 40.0776 72.9962 40.6179 73.7209 40.6179C74.2378 40.6179 74.6737 40.3575 74.8359 39.9007H75.4339C75.2362 40.6277 74.5825 41.1189 73.7209 41.1189Z" fill="black" fill-opacity="0.8"/>
<path d="M77.5849 41.055V38.0882H76.5307V37.6167H79.1813V38.0882H78.1271V41.055H77.5849Z" fill="#865E41"/>
<path d="M77.5849 41.055V38.0882H76.5307V37.6167H79.1813V38.0882H78.1271V41.055H77.5849Z" fill="black" fill-opacity="0.8"/>
<path d="M80.5905 41.055V37.6167H81.1379V41.055H80.5905Z" fill="#865E41"/>
<path d="M80.5905 41.055V37.6167H81.1379V41.055H80.5905Z" fill="black" fill-opacity="0.8"/>
<path d="M84.4092 41.1189C83.3449 41.1189 82.5594 40.3575 82.5594 39.3359C82.5594 38.324 83.35 37.5528 84.4143 37.5528C85.4836 37.5528 86.2641 38.3338 86.2641 39.3359C86.2641 40.3477 85.4786 41.1189 84.4092 41.1189ZM84.4143 40.6179C85.1593 40.6179 85.7016 40.0726 85.7016 39.3359C85.7016 38.6089 85.1593 38.0538 84.4143 38.0538C83.6693 38.0538 83.127 38.6089 83.127 39.3359C83.127 40.0726 83.6693 40.6179 84.4143 40.6179Z" fill="#865E41"/>
<path d="M84.4092 41.1189C83.3449 41.1189 82.5594 40.3575 82.5594 39.3359C82.5594 38.324 83.35 37.5528 84.4143 37.5528C85.4836 37.5528 86.2641 38.3338 86.2641 39.3359C86.2641 40.3477 85.4786 41.1189 84.4092 41.1189ZM84.4143 40.6179C85.1593 40.6179 85.7016 40.0726 85.7016 39.3359C85.7016 38.6089 85.1593 38.0538 84.4143 38.0538C83.6693 38.0538 83.127 38.6089 83.127 39.3359C83.127 40.0726 83.6693 40.6179 84.4143 40.6179Z" fill="black" fill-opacity="0.8"/>
<path d="M87.7654 41.055V37.6167H88.3482L90.0308 40.1611H90.0612V37.6167H90.5934V41.055H90.0055L88.333 38.5107H88.3026V41.055H87.7654Z" fill="#865E41"/>
<path d="M87.7654 41.055V37.6167H88.3482L90.0308 40.1611H90.0612V37.6167H90.5934V41.055H90.0055L88.333 38.5107H88.3026V41.055H87.7654Z" fill="black" fill-opacity="0.8"/>
</svg>
