<svg width="145" height="53" fill="none" xmlns="http://www.w3.org/2000/svg">
  <path d="M59.49 12.51c0 6.862 5.615 12.446 12.51 12.446 6.894 0 12.446-5.584 12.446-12.447C84.446 5.646 78.862 0 72 0 65.138 0 59.49 5.615 59.49 12.51Zm8.33-10.014V22.46c-3.931-1.622-6.676-5.49-6.676-9.95 0-4.462 2.745-8.392 6.675-10.014Zm14.973 10.013c0 4.492-2.745 8.33-6.645 9.951V2.496c3.9 1.622 6.645 5.521 6.645 10.013Zm-3.338 2.527c0 .873-.312 1.716-.936 2.277l1.186 1.217a4.937 4.937 0 0 0 1.466-3.494c0-1.279-.53-2.496-1.435-3.431a3.315 3.315 0 0 1 0-4.617L78.55 5.802a4.905 4.905 0 0 0-.03 6.894c.623.624.935 1.467.935 2.34Zm-15.16 3.494 1.185-1.217a3.163 3.163 0 0 1-.967-2.277c0-.873.343-1.716.967-2.34 1.871-1.902 1.84-4.99-.063-6.894l-1.185 1.186a3.257 3.257 0 0 1 0 4.617 4.918 4.918 0 0 0-1.404 3.431c0 1.31.53 2.558 1.466 3.494Zm7.704-16.877c.188 0 .344 0 .53.032v21.587h-1.06V1.715c.156-.063.343-.063.53-.063Zm1.779.188c.343.03.686.124 1.029.218v20.87c-.343.093-.686.187-1.03.249V1.84Zm-4.68 21.056V2.06c.344-.063.687-.187 1.03-.218v21.306c-.343-.063-.686-.125-1.03-.25Z" fill="#865E41"/>
  <path d="M59.49 12.51c0 6.862 5.615 12.446 12.51 12.446 6.894 0 12.446-5.584 12.446-12.447C84.446 5.646 78.862 0 72 0 65.138 0 59.49 5.615 59.49 12.51Zm8.33-10.014V22.46c-3.931-1.622-6.676-5.49-6.676-9.95 0-4.462 2.745-8.392 6.675-10.014Zm14.973 10.013c0 4.492-2.745 8.33-6.645 9.951V2.496c3.9 1.622 6.645 5.521 6.645 10.013Zm-3.338 2.527c0 .873-.312 1.716-.936 2.277l1.186 1.217a4.937 4.937 0 0 0 1.466-3.494c0-1.279-.53-2.496-1.435-3.431a3.315 3.315 0 0 1 0-4.617L78.55 5.802a4.905 4.905 0 0 0-.03 6.894c.623.624.935 1.467.935 2.34Zm-15.16 3.494 1.185-1.217a3.163 3.163 0 0 1-.967-2.277c0-.873.343-1.716.967-2.34 1.871-1.902 1.84-4.99-.063-6.894l-1.185 1.186a3.257 3.257 0 0 1 0 4.617 4.918 4.918 0 0 0-1.404 3.431c0 1.31.53 2.558 1.466 3.494Zm7.704-16.877c.188 0 .344 0 .53.032v21.587h-1.06V1.715c.156-.063.343-.063.53-.063Zm1.779.188c.343.03.686.124 1.029.218v20.87c-.343.093-.686.187-1.03.249V1.84Zm-4.68 21.056V2.06c.344-.063.687-.187 1.03-.218v21.306c-.343-.063-.686-.125-1.03-.25Z" fill="#000"/>
  <path d="M0 40.008V33.45h4.379v1.078H1.358v1.63H3.94v1.068H1.358v1.706H4.48v1.077H0Z" fill="#865E41"/>
  <path d="M0 40.008V33.45h4.379v1.078H1.358v1.63H3.94v1.068H1.358v1.706H4.48v1.077H0Z" fill="#000"/>
  <path d="M9.845 40.13c-1.46 0-2.44-.806-2.45-2.108h1.297c.01.571.439.965 1.153.965.827 0 1.153-.581 1.153-1.143v-3.299H8.56V33.45h3.797v4.423c0 1.302-.898 2.258-2.51 2.258Z" fill="#865E41"/>
  <path d="M9.845 40.13c-1.46 0-2.44-.806-2.45-2.108h1.297c.01.571.439.965 1.153.965.827 0 1.153-.581 1.153-1.143v-3.299H8.56V33.45h3.797v4.423c0 1.302-.898 2.258-2.51 2.258Z" fill="#000"/>
  <path d="M16.029 40.008V33.45h1.358v6.56h-1.358Z" fill="#865E41"/>
  <path d="M16.029 40.008V33.45h1.358v6.56h-1.358Z" fill="#000"/>
  <path d="M21.143 40.008V33.45h2.674c1.46 0 2.46.853 2.46 2.09 0 .908-.582 1.602-1.337 1.911l1.572 2.558H24.99l-1.337-2.343H22.5v2.343h-1.357Zm1.357-3.41h1.215c.674 0 1.174-.366 1.174-1.06 0-.59-.44-1.02-1.194-1.02H22.5v2.08Z" fill="#865E41"/>
  <path d="M21.143 40.008V33.45h2.674c1.46 0 2.46.853 2.46 2.09 0 .908-.582 1.602-1.337 1.911l1.572 2.558H24.99l-1.337-2.343H22.5v2.343h-1.357Zm1.357-3.41h1.215c.674 0 1.174-.366 1.174-1.06 0-.59-.44-1.02-1.194-1.02H22.5v2.08Z" fill="#000"/>
  <path d="M33.124 40.13c-2.164 0-3.756-1.453-3.756-3.402 0-1.93 1.602-3.4 3.766-3.4 2.164 0 3.767 1.489 3.767 3.4 0 1.93-1.613 3.402-3.777 3.402Zm.01-1.19c1.368 0 2.348-.937 2.348-2.212 0-1.255-.98-2.21-2.348-2.21-1.378 0-2.358.955-2.358 2.21 0 1.275.98 2.212 2.358 2.212Z" fill="#865E41"/>
  <path d="M33.124 40.13c-2.164 0-3.756-1.453-3.756-3.402 0-1.93 1.602-3.4 3.766-3.4 2.164 0 3.767 1.489 3.767 3.4 0 1.93-1.613 3.402-3.777 3.402Zm.01-1.19c1.368 0 2.348-.937 2.348-2.212 0-1.255-.98-2.21-2.348-2.21-1.378 0-2.358.955-2.358 2.21 0 1.275.98 2.212 2.358 2.212Z" fill="#000"/>
  <path d="M45.136 40.008V33.45h1.358v5.453h2.888v1.106h-4.246Z" fill="#865E41"/>
  <path d="M45.136 40.008V33.45h1.358v5.453h2.888v1.106h-4.246Z" fill="#000"/>
  <path d="M52.752 40.008V33.45h4.379v1.078H54.11v1.63h2.582v1.068H54.11v1.706h3.123v1.077h-4.48Z" fill="#865E41"/>
  <path d="M52.752 40.008V33.45h4.379v1.078H54.11v1.63h2.582v1.068H54.11v1.706h3.123v1.077h-4.48Z" fill="#000"/>
  <path d="M60.617 40.008V33.45h1.48l3.062 4.488h.061V33.45h1.317v6.56h-1.49l-3.042-4.49h-.061v4.49h-1.327Z" fill="#865E41"/>
  <path d="M60.617 40.008V33.45h1.48l3.062 4.488h.061V33.45h1.317v6.56h-1.49l-3.042-4.49h-.061v4.49h-1.327Z" fill="#000"/>
  <path d="M70.296 40.008V33.45h1.48l3.062 4.488h.062V33.45h1.316v6.56h-1.49l-3.042-4.49h-.061v4.49h-1.327Z" fill="#865E41"/>
  <path d="M70.296 40.008V33.45h1.48l3.062 4.488h.062V33.45h1.316v6.56h-1.49l-3.042-4.49h-.061v4.49h-1.327Z" fill="#000"/>
  <path d="M83.364 40.13c-2.164 0-3.756-1.453-3.756-3.402 0-1.93 1.602-3.4 3.766-3.4 2.164 0 3.767 1.489 3.767 3.4 0 1.93-1.613 3.402-3.777 3.402Zm.01-1.19c1.368 0 2.348-.937 2.348-2.212 0-1.255-.98-2.21-2.348-2.21-1.378 0-2.358.955-2.358 2.21 0 1.275.98 2.212 2.358 2.212Z" fill="#865E41"/>
  <path d="M83.364 40.13c-2.164 0-3.756-1.453-3.756-3.402 0-1.93 1.602-3.4 3.766-3.4 2.164 0 3.767 1.489 3.767 3.4 0 1.93-1.613 3.402-3.777 3.402Zm.01-1.19c1.368 0 2.348-.937 2.348-2.212 0-1.255-.98-2.21-2.348-2.21-1.378 0-2.358.955-2.358 2.21 0 1.275.98 2.212 2.358 2.212Z" fill="#000"/>
  <path d="m89.428 40.008 2.256-3.354-2.143-3.205h1.541l1.44 2.211h.06l1.45-2.211h1.541l-2.154 3.205 2.256 3.354h-1.572l-1.53-2.37h-.062l-1.52 2.37h-1.563Z" fill="#865E41"/>
  <path d="m89.428 40.008 2.256-3.354-2.143-3.205h1.541l1.44 2.211h.06l1.45-2.211h1.541l-2.154 3.205 2.256 3.354h-1.572l-1.53-2.37h-.062l-1.52 2.37h-1.563Z" fill="#000"/>
  <path d="M103.65 40.008V33.45h1.643l2.195 4.873h.061l1.98-4.873h1.643v6.56h-1.306v-4.096h-.061l-1.715 4.095h-1.184l-1.888-4.198h-.062v4.198h-1.306Z" fill="#865E41"/>
  <path d="M103.65 40.008V33.45h1.643l2.195 4.873h.061l1.98-4.873h1.643v6.56h-1.306v-4.096h-.061l-1.715 4.095h-1.184l-1.888-4.198h-.062v4.198h-1.306Z" fill="#000"/>
  <path d="M117.669 40.13c-1.745 0-2.827-1.03-2.827-2.568V33.45h1.358v4.104c0 .872.51 1.406 1.469 1.406.97 0 1.48-.535 1.48-1.415v-4.095h1.348v4.104c0 1.537-1.092 2.577-2.828 2.577Z" fill="#865E41"/>
  <path d="M117.669 40.13c-1.745 0-2.827-1.03-2.827-2.568V33.45h1.358v4.104c0 .872.51 1.406 1.469 1.406.97 0 1.48-.535 1.48-1.415v-4.095h1.348v4.104c0 1.537-1.092 2.577-2.828 2.577Z" fill="#000"/>
  <path d="M126.42 40.13c-1.633 0-2.715-.89-2.715-2.193h1.316c.011.59.541 1.05 1.44 1.05.765 0 1.255-.3 1.255-.797 0-1.499-3.797-.29-3.797-2.97 0-1.04.898-1.893 2.47-1.893 1.358 0 2.511.656 2.552 2.024h-1.358c-.01-.543-.428-.909-1.194-.909-.755 0-1.123.347-1.123.76 0 1.367 3.848.243 3.848 2.895 0 1.161-.98 2.033-2.694 2.033Z" fill="#865E41"/>
  <path d="M126.42 40.13c-1.633 0-2.715-.89-2.715-2.193h1.316c.011.59.541 1.05 1.44 1.05.765 0 1.255-.3 1.255-.797 0-1.499-3.797-.29-3.797-2.97 0-1.04.898-1.893 2.47-1.893 1.358 0 2.511.656 2.552 2.024h-1.358c-.01-.543-.428-.909-1.194-.909-.755 0-1.123.347-1.123.76 0 1.367 3.848.243 3.848 2.895 0 1.161-.98 2.033-2.694 2.033Z" fill="#000"/>
  <path d="M132.458 40.008V33.45h1.357v6.56h-1.357Z" fill="#865E41"/>
  <path d="M132.458 40.008V33.45h1.357v6.56h-1.357Z" fill="#000"/>
  <path d="M140.82 40.13c-2.184 0-3.725-1.453-3.725-3.402 0-1.93 1.551-3.4 3.735-3.4 1.838 0 3.124 1.04 3.491 2.445h-1.47c-.265-.76-1.041-1.256-2.021-1.256-1.347 0-2.327.947-2.327 2.211 0 1.284.98 2.212 2.327 2.212.97 0 1.756-.487 2.042-1.237h1.49c-.347 1.415-1.705 2.427-3.542 2.427Z" fill="#865E41"/>
  <path d="M140.82 40.13c-2.184 0-3.725-1.453-3.725-3.402 0-1.93 1.551-3.4 3.735-3.4 1.838 0 3.124 1.04 3.491 2.445h-1.47c-.265-.76-1.041-1.256-2.021-1.256-1.347 0-2.327.947-2.327 2.211 0 1.284.98 2.212 2.327 2.212.97 0 1.756-.487 2.042-1.237h1.49c-.347 1.415-1.705 2.427-3.542 2.427Z" fill="#000"/>
  <path d="M28.551 53c-.98 0-1.685-.589-1.685-1.444h.686c.006.456.392.817 1.025.817.542 0 .908-.24.908-.64 0-1.196-2.476-.31-2.476-2.095 0-.671.562-1.234 1.529-1.234.777 0 1.555.405 1.568 1.33h-.712c0-.438-.307-.716-.862-.716-.562 0-.824.29-.824.608 0 1.07 2.502.265 2.502 2.057 0 .74-.607 1.317-1.659 1.317Z" fill="#865E41"/>
  <path d="M28.551 53c-.98 0-1.685-.589-1.685-1.444h.686c.006.456.392.817 1.025.817.542 0 .908-.24.908-.64 0-1.196-2.476-.31-2.476-2.095 0-.671.562-1.234 1.529-1.234.777 0 1.555.405 1.568 1.33h-.712c0-.438-.307-.716-.862-.716-.562 0-.824.29-.824.608 0 1.07 2.502.265 2.502 2.057 0 .74-.607 1.317-1.659 1.317Z" fill="#000"/>
  <path d="M33.09 52.918v-3.824h-1.36v-.608h3.417v.608h-1.359v3.824h-.699Z" fill="#865E41"/>
  <path d="M33.09 52.918v-3.824h-1.36v-.608h3.417v.608h-1.359v3.824h-.699Z" fill="#000"/>
  <path d="M36.964 52.918v-4.432h1.633c.934 0 1.535.557 1.535 1.361a1.35 1.35 0 0 1-.908 1.285l1.038 1.786h-.797l-.934-1.684h-.862v1.684h-.705Zm.705-2.28h.895c.483 0 .843-.265.843-.791 0-.43-.3-.772-.87-.772h-.868v1.563Z" fill="#865E41"/>
  <path d="M36.964 52.918v-4.432h1.633c.934 0 1.535.557 1.535 1.361a1.35 1.35 0 0 1-.908 1.285l1.038 1.786h-.797l-.934-1.684h-.862v1.684h-.705Zm.705-2.28h.895c.483 0 .843-.265.843-.791 0-.43-.3-.772-.87-.772h-.868v1.563Z" fill="#000"/>
  <path d="M42.149 52.918v-4.432h.705v4.432h-.705Z" fill="#865E41"/>
  <path d="M42.149 52.918v-4.432h.705v4.432h-.705Z" fill="#000"/>
  <path d="M45.063 52.918v-4.432h.751l2.17 3.28h.038v-3.28h.686v4.432h-.757l-2.156-3.28h-.04v3.28h-.692Z" fill="#865E41"/>
  <path d="M45.063 52.918v-4.432h.751l2.17 3.28h.038v-3.28h.686v4.432h-.757l-2.156-3.28h-.04v3.28h-.692Z" fill="#000"/>
  <path d="M53.022 53c-1.379 0-2.378-.981-2.378-2.298 0-1.304.993-2.298 2.378-2.298 1.104 0 1.914.639 2.188 1.5h-.777c-.216-.507-.712-.855-1.411-.855-.987 0-1.646.71-1.646 1.653 0 .956.666 1.659 1.652 1.659.836 0 1.477-.507 1.529-1.229H52.91v-.576h2.43c.026 1.59-1.013 2.444-2.32 2.444Z" fill="#865E41"/>
  <path d="M53.022 53c-1.379 0-2.378-.981-2.378-2.298 0-1.304.993-2.298 2.378-2.298 1.104 0 1.914.639 2.188 1.5h-.777c-.216-.507-.712-.855-1.411-.855-.987 0-1.646.71-1.646 1.653 0 .956.666 1.659 1.652 1.659.836 0 1.477-.507 1.529-1.229H52.91v-.576h2.43c.026 1.59-1.013 2.444-2.32 2.444Z" fill="#000"/>
  <path d="M58.63 53c-.98 0-1.685-.589-1.685-1.444h.685c.007.456.392.817 1.026.817.542 0 .908-.24.908-.64 0-1.196-2.476-.31-2.476-2.095 0-.671.562-1.234 1.529-1.234.777 0 1.555.405 1.568 1.33h-.712c0-.438-.307-.716-.863-.716-.561 0-.823.29-.823.608 0 1.07 2.502.265 2.502 2.057 0 .74-.607 1.317-1.659 1.317Z" fill="#865E41"/>
  <path d="M58.63 53c-.98 0-1.685-.589-1.685-1.444h.685c.007.456.392.817 1.026.817.542 0 .908-.24.908-.64 0-1.196-2.476-.31-2.476-2.095 0-.671.562-1.234 1.529-1.234.777 0 1.555.405 1.568 1.33h-.712c0-.438-.307-.716-.863-.716-.561 0-.823.29-.823.608 0 1.07 2.502.265 2.502 2.057 0 .74-.607 1.317-1.659 1.317Z" fill="#000"/>
  <path d="M65.026 52.918v-4.432h1.686c.856 0 1.463.55 1.463 1.38 0 .823-.633 1.4-1.463 1.4h-.98v1.652h-.706Zm.706-2.242h.915c.49 0 .816-.341.816-.81 0-.462-.326-.791-.816-.791h-.915v1.601Z" fill="#865E41"/>
  <path d="M65.026 52.918v-4.432h1.686c.856 0 1.463.55 1.463 1.38 0 .823-.633 1.4-1.463 1.4h-.98v1.652h-.706Zm.706-2.242h.915c.49 0 .816-.341.816-.81 0-.462-.326-.791-.816-.791h-.915v1.601Z" fill="#000"/>
  <path d="M70.04 52.918v-4.432h1.633c.934 0 1.535.557 1.535 1.361a1.35 1.35 0 0 1-.908 1.285l1.039 1.786h-.797l-.934-1.684h-.863v1.684h-.705Zm.705-2.28h.895c.484 0 .843-.265.843-.791 0-.43-.3-.772-.869-.772h-.869v1.563Z" fill="#865E41"/>
  <path d="M70.04 52.918v-4.432h1.633c.934 0 1.535.557 1.535 1.361a1.35 1.35 0 0 1-.908 1.285l1.039 1.786h-.797l-.934-1.684h-.863v1.684h-.705Zm.705-2.28h.895c.484 0 .843-.265.843-.791 0-.43-.3-.772-.869-.772h-.869v1.563Z" fill="#000"/>
  <path d="M77.297 53c-1.372 0-2.385-.981-2.385-2.298 0-1.304 1.02-2.298 2.391-2.298 1.379 0 2.385 1.006 2.385 2.298 0 1.304-1.013 2.298-2.391 2.298Zm.006-.646c.96 0 1.66-.703 1.66-1.652 0-.937-.7-1.653-1.66-1.653s-1.66.716-1.66 1.653c0 .95.7 1.652 1.66 1.652Z" fill="#865E41"/>
  <path d="M77.297 53c-1.372 0-2.385-.981-2.385-2.298 0-1.304 1.02-2.298 2.391-2.298 1.379 0 2.385 1.006 2.385 2.298 0 1.304-1.013 2.298-2.391 2.298Zm.006-.646c.96 0 1.66-.703 1.66-1.652 0-.937-.7-1.653-1.66-1.653s-1.66.716-1.66 1.653c0 .95.7 1.652 1.66 1.652Z" fill="#000"/>
  <path d="M81.623 52.918v-4.432h1.45c1.457 0 2.312.918 2.312 2.21 0 1.373-.856 2.222-2.312 2.222h-1.45Zm.705-.595h.732c.94 0 1.607-.551 1.607-1.628 0-1.032-.654-1.608-1.607-1.608h-.732v3.236Z" fill="#865E41"/>
  <path d="M81.623 52.918v-4.432h1.45c1.457 0 2.312.918 2.312 2.21 0 1.373-.856 2.222-2.312 2.222h-1.45Zm.705-.595h.732c.94 0 1.607-.551 1.607-1.628 0-1.032-.654-1.608-1.607-1.608h-.732v3.236Z" fill="#000"/>
  <path d="M89.023 53c-1.11 0-1.763-.684-1.763-1.703v-2.811h.705v2.805c0 .658.36 1.076 1.058 1.076.693 0 1.059-.418 1.059-1.083v-2.798h.699v2.805c0 1.019-.667 1.709-1.758 1.709Z" fill="#865E41"/>
  <path d="M89.023 53c-1.11 0-1.763-.684-1.763-1.703v-2.811h.705v2.805c0 .658.36 1.076 1.058 1.076.693 0 1.059-.418 1.059-1.083v-2.798h.699v2.805c0 1.019-.667 1.709-1.758 1.709Z" fill="#000"/>
  <path d="M95.022 53c-1.379 0-2.372-.981-2.372-2.298 0-1.304 1-2.298 2.371-2.298 1.117 0 1.928.652 2.195 1.576h-.757c-.203-.589-.771-.93-1.438-.93-.934 0-1.64.708-1.64 1.652 0 .956.706 1.652 1.64 1.652.667 0 1.229-.335 1.438-.924h.77c-.254.937-1.097 1.57-2.207 1.57Z" fill="#865E41"/>
  <path d="M95.022 53c-1.379 0-2.372-.981-2.372-2.298 0-1.304 1-2.298 2.371-2.298 1.117 0 1.928.652 2.195 1.576h-.757c-.203-.589-.771-.93-1.438-.93-.934 0-1.64.708-1.64 1.652 0 .956.706 1.652 1.64 1.652.667 0 1.229-.335 1.438-.924h.77c-.254.937-1.097 1.57-2.207 1.57Z" fill="#000"/>
  <path d="M100.002 52.918v-3.824h-1.359v-.608h3.417v.608h-1.359v3.824h-.699Z" fill="#865E41"/>
  <path d="M100.002 52.918v-3.824h-1.359v-.608h3.417v.608h-1.359v3.824h-.699Z" fill="#000"/>
  <path d="M103.876 52.918v-4.432h.706v4.432h-.706Z" fill="#865E41"/>
  <path d="M103.876 52.918v-4.432h.706v4.432h-.706Z" fill="#000"/>
  <path d="M108.798 53c-1.372 0-2.384-.981-2.384-2.298 0-1.304 1.019-2.298 2.391-2.298 1.378 0 2.384 1.006 2.384 2.298 0 1.304-1.013 2.298-2.391 2.298Zm.007-.646c.96 0 1.659-.703 1.659-1.652 0-.937-.699-1.653-1.659-1.653-.961 0-1.66.716-1.66 1.653 0 .95.699 1.652 1.66 1.652Z" fill="#865E41"/>
  <path d="M108.798 53c-1.372 0-2.384-.981-2.384-2.298 0-1.304 1.019-2.298 2.391-2.298 1.378 0 2.384 1.006 2.384 2.298 0 1.304-1.013 2.298-2.391 2.298Zm.007-.646c.96 0 1.659-.703 1.659-1.652 0-.937-.699-1.653-1.659-1.653-.961 0-1.66.716-1.66 1.653 0 .95.699 1.652 1.66 1.652Z" fill="#000"/>
  <path d="M113.124 52.918v-4.432h.751l2.169 3.28h.039v-3.28h.686v4.432h-.758l-2.155-3.28h-.04v3.28h-.692Z" fill="#865E41"/>
  <path d="M113.124 52.918v-4.432h.751l2.169 3.28h.039v-3.28h.686v4.432h-.758l-2.155-3.28h-.04v3.28h-.692Z" fill="#000"/>
</svg>
