<svg width="126" height="50" viewBox="0 0 126 50" fill="none" xmlns="http://www.w3.org/2000/svg">
<path d="M15.1164 18.4534L15.1952 18.5323C22.843 16.2458 28.5985 8.59805 28.5985 4.34052C28.5985 2.6454 27.6918 1.26564 25.7208 1.26564C21.5815 1.26564 19.0191 10.4509 15.1164 18.4534ZM4.43311 29.8463C7.19262 28.5059 9.32139 24.4849 11.4107 19.912L11.3319 19.8332C4.43311 19.7149 1.98898 15.9699 1.98898 12.6979C1.98898 9.42591 4.0389 7.88847 5.53692 7.88847C6.44361 7.88847 7.1532 8.44037 7.1532 9.46533C7.1532 10.7268 5.93113 10.8845 4.90617 11.4364C3.72353 12.1066 3.40815 13.0921 3.40815 14.0382C3.40815 17.0343 7.11378 19.163 10.78 19.1236C11.0954 19.1236 11.4107 19.1236 11.7261 19.0842C15.4317 10.648 18.9402 0.516634 25.4842 0.516634C28.4803 0.516634 29.8206 2.52713 29.8206 4.97127C29.8206 10.0961 23.9074 18.0198 14.6039 19.5967C12.3174 24.0513 9.59734 27.954 5.85229 29.4915L5.89171 29.5703C6.91667 29.1761 7.62626 29.0184 8.73006 29.0184C19.7287 29.0184 29.2293 43.9198 43.9335 43.9198C50.99 43.9198 55.9571 39.6622 57.2186 38.5584L57.4945 38.795C55.2081 41.1208 49.6102 45.5755 42.1201 45.5755C28.362 45.5755 14.5645 30.477 6.71956 30.477C4.66964 30.477 3.99948 31.502 3.64468 33.1971C3.52642 33.7884 3.17162 35.247 1.83129 35.247C0.924594 35.247 0.136163 34.6163 0.136163 33.5913C0.136163 32.1327 1.79187 30.9501 4.43311 29.8463ZM36.2599 15.1815C33.6186 15.1815 31.1351 18.7294 30.1495 22.6716C35.5503 21.8437 38.3886 19.7544 38.3886 17.2708C38.3886 16.167 37.6396 15.1815 36.2599 15.1815ZM40.3203 27.9146L40.7145 28.1906C38.4675 31.1866 35.6685 33.3942 32.6725 33.3942C29.0063 33.3942 26.641 30.7924 26.641 26.732C26.641 20.5822 32.1994 14.1171 37.5214 14.1171C39.729 14.1171 41.6212 14.9449 41.6212 17.0343C41.6212 20.6611 35.9839 22.435 30.0313 23.3417C29.8341 24.209 29.7553 25.0763 29.7553 25.9435C29.7553 29.8463 31.687 31.502 34.0523 31.502C36.1416 31.502 38.5463 30.1616 40.3203 27.9146ZM46.4008 33H43.523L47.2286 19.1236C47.4257 18.4534 47.5046 17.9015 47.5046 17.5073C47.5046 16.5612 46.9132 16.2458 45.8094 16.2458C45.5335 16.2458 45.2969 16.2458 44.9816 16.2853V15.7728C47.4651 15.2603 48.9237 14.7872 51.1708 13.9988L51.4467 14.1171L48.6478 24.5244H48.7266C51.3679 18.3352 54.9552 14.1171 58.109 14.1171C59.7647 14.1171 60.7502 15.2997 60.7502 17.3102C60.7502 18.0198 60.6319 18.7688 60.3954 19.6361L57.9118 28.9002C57.833 29.1761 57.7542 29.5309 57.7542 29.8463C57.7542 30.3588 57.9513 30.7924 58.5426 30.7924C59.4887 30.7924 60.9867 29.4521 62.2482 27.8358L62.6424 28.1117C60.356 31.3837 58.2666 33.3942 56.5321 33.3942C55.0735 33.3942 54.6399 32.251 54.6399 31.0683C54.6399 30.5559 54.7187 30.0828 54.837 29.6492L57.3994 20.0303C57.5965 19.3601 57.7147 18.6111 57.7147 17.8621C57.7147 16.916 57.4388 16.0487 56.4138 16.0487C53.1813 16.0487 48.5689 24.9974 46.9921 30.8318L46.4008 33ZM66.9585 33H64.0807L67.7863 19.1236C67.9834 18.4534 68.0623 17.9015 68.0623 17.5073C68.0623 16.5612 67.471 16.2458 66.3672 16.2458C66.0912 16.2458 65.8547 16.2458 65.5393 16.2853V15.7728C68.0229 15.2603 69.4815 14.7872 71.7285 13.9988L72.0044 14.1171L69.2055 24.5244H69.2844C71.9256 18.3352 75.513 14.1171 78.6667 14.1171C80.3224 14.1171 81.3079 15.2997 81.3079 17.3102C81.3079 18.0198 81.1897 18.7688 80.9531 19.6361L78.4696 28.9002C78.3907 29.1761 78.3119 29.5309 78.3119 29.8463C78.3119 30.3588 78.509 30.7924 79.1003 30.7924C80.0464 30.7924 81.5445 29.4521 82.8059 27.8358L83.2002 28.1117C80.9137 31.3837 78.8244 33.3942 77.0898 33.3942C75.6312 33.3942 75.1976 32.251 75.1976 31.0683C75.1976 30.5559 75.2764 30.0828 75.3947 29.6492L77.9571 20.0303C78.1542 19.3601 78.2725 18.6111 78.2725 17.8621C78.2725 16.916 77.9965 16.0487 76.9716 16.0487C73.739 16.0487 69.1267 24.9974 67.5498 30.8318L66.9585 33ZM95.6913 14.1171C99.2392 14.1171 101.486 16.5612 101.486 20.4245C101.486 26.8502 96.1249 33.3942 90.8424 33.3942C87.1762 33.3942 84.8109 30.7924 84.8109 26.732C84.8109 20.5822 90.3693 14.1171 95.6913 14.1171ZM94.7057 15.418C91.1184 15.418 87.9252 20.9764 87.9252 27.1262C87.9252 30.2405 89.305 32.1721 91.5126 32.1721C95.0999 32.1721 98.3325 26.6531 98.3325 20.4245C98.3325 17.3102 96.9527 15.418 94.7057 15.418ZM104.579 29.728C105.604 29.728 105.959 30.477 106.747 30.477C108.443 30.3982 110.335 27.6781 112.464 24.1301C111.517 21.2524 110.571 18.5323 109.743 17.2708C109.113 16.3247 108.482 16.0882 107.654 16.0882C107.339 16.0882 106.984 16.1276 106.59 16.167V15.6545C108.955 15.142 109.231 14.9055 111.399 14.1171C112.661 16.5612 113.686 19.1236 114.592 21.8831H114.671C117.076 17.941 119.875 14.1171 122.91 14.1171C124.29 14.1171 125.197 14.8661 125.197 15.9699C125.197 16.8766 124.566 17.6256 123.738 17.6256C122.713 17.6256 122.28 16.4429 121.018 16.4429C119.126 16.4429 116.958 19.3996 114.908 22.7898C115.302 23.933 115.657 25.1157 116.051 26.3378C116.839 28.8213 117.47 30.8712 118.929 30.8712C120.111 30.8712 121.649 29.4521 122.871 27.8358L123.226 28.1117C121.057 31.3837 119.086 33.3942 117.391 33.3942C115.341 33.3942 114.435 30.4376 113.646 27.8752C113.37 26.9685 113.055 26.0224 112.818 25.0763H112.74C110.256 29.255 107.694 33.3942 105.052 33.3942C103.87 33.3942 102.884 32.5664 102.884 31.4626C102.884 30.5164 103.673 29.728 104.579 29.728Z" fill="black"/>
<path d="M64.2105 40.0319V42.0527H64.1066C63.9461 40.7307 63.049 40.1736 62.2653 40.1736C61.6515 40.1736 61.1133 40.523 61.1133 41.2028C61.1133 42.0243 61.8876 42.3926 62.388 42.6287C63.6345 43.2141 64.6448 43.7146 64.6448 44.9232C64.6448 46.1319 63.6439 46.774 62.5769 46.774C61.8215 46.774 61.3682 46.4529 61.0377 46.4529C60.8772 46.4529 60.7639 46.5285 60.6317 46.6985L60.5373 46.6796V44.4417H60.6506C60.7545 45.8581 61.7271 46.5096 62.6052 46.5096C63.3323 46.5096 63.9933 46.0564 63.9933 45.2443C63.9933 44.3095 63.1057 43.8657 62.1803 43.4407C61.3966 43.0819 60.5278 42.657 60.5278 41.5711C60.5278 40.5513 61.2927 39.9281 62.3314 39.9281C63.0396 39.9281 63.4834 40.2208 63.795 40.2208C63.9177 40.2208 64.0122 40.1736 64.1066 40.0036L64.2105 40.0319ZM68.527 41.7977L68.7442 40.0225H74.0132L74.2304 41.7977H74.1171C73.7016 40.3341 73.4938 40.2869 71.8131 40.2869H71.7753V46.1413C71.7753 46.3302 71.8225 46.519 72.5968 46.5568V46.6796H70.17V46.5568C70.9443 46.519 70.9915 46.3302 70.9915 46.1413V40.2869H70.9443C69.2635 40.2869 69.0558 40.3341 68.6403 41.7977H68.527ZM78.1213 40.0225H80.6897C82.3422 40.0225 83.1826 40.7685 83.1826 41.826C83.1826 42.6476 82.6727 43.318 81.6151 43.5918L82.8899 45.5559C83.4092 46.3585 83.6453 46.519 84.2402 46.5568V46.6796H82.7671L80.8314 43.7146C80.7086 43.724 80.5859 43.724 80.4537 43.724C80.2459 43.724 79.991 43.7146 79.7266 43.6862V46.1413C79.7266 46.3302 79.7738 46.519 80.5481 46.5568V46.6796H78.1213V46.5568C78.8956 46.519 78.9428 46.3302 78.9428 46.1413V40.5607C78.9428 40.3719 78.8956 40.183 78.1213 40.1453V40.0225ZM79.7266 40.3152V43.4313C79.9532 43.4691 80.2082 43.4879 80.4159 43.4879C81.4263 43.4879 82.4177 43.0158 82.4177 41.7694C82.4177 40.5513 81.464 40.268 80.5009 40.268C80.2459 40.268 79.9721 40.2869 79.7266 40.3152ZM87.2369 47.0101L92.1282 39.5315H92.5153L87.624 47.0101H87.2369ZM95.438 40.1453V40.0225H96.9016L101.122 45.2632H101.141V40.5607C101.141 40.3719 101.094 40.183 100.32 40.1453V40.0225H102.274V40.1453C101.5 40.183 101.453 40.3719 101.453 40.5607V46.7645H101.387L96.9866 41.3445H96.9677V46.1413C96.9677 46.3302 97.0149 46.519 97.7892 46.5568V46.6796H95.8346V46.5568C96.6089 46.519 96.6561 46.3302 96.6561 46.1413V40.9573L96.3822 40.6174C96.0706 40.2397 95.929 40.1925 95.438 40.1453ZM109.117 46.774C107.615 46.774 106.067 45.5653 106.067 43.318C106.067 41.3161 107.294 39.9281 109.23 39.9281C110.203 39.9281 110.552 40.2774 110.93 40.2774C111.081 40.2774 111.241 40.2208 111.317 40.0036H111.43L111.628 42.2226H111.525C111.071 40.7213 110.193 40.2114 109.249 40.2114C107.747 40.2114 106.917 41.4956 106.917 43.2141C106.917 45.3387 108.182 46.3585 109.438 46.3585C109.957 46.3585 110.467 46.1885 110.892 45.8392V43.8562C110.892 43.6674 110.845 43.4785 110.07 43.4407V43.318H112.497V43.4407C111.723 43.4785 111.676 43.6674 111.676 43.8562V46.6796L111.562 46.7079C111.392 46.3963 111.222 46.283 111.015 46.283C110.835 46.283 110.628 46.368 110.458 46.4435C109.976 46.6512 109.598 46.774 109.117 46.774ZM120.197 40.0319V42.0527H120.093C119.932 40.7307 119.035 40.1736 118.252 40.1736C117.638 40.1736 117.1 40.523 117.1 41.2028C117.1 42.0243 117.874 42.3926 118.374 42.6287C119.621 43.2141 120.631 43.7146 120.631 44.9232C120.631 46.1319 119.63 46.774 118.563 46.774C117.808 46.774 117.355 46.4529 117.024 46.4529C116.864 46.4529 116.75 46.5285 116.618 46.6985L116.524 46.6796V44.4417H116.637C116.741 45.8581 117.713 46.5096 118.592 46.5096C119.319 46.5096 119.98 46.0564 119.98 45.2443C119.98 44.3095 119.092 43.8657 118.167 43.4407C117.383 43.0819 116.514 42.657 116.514 41.5711C116.514 40.5513 117.279 39.9281 118.318 39.9281C119.026 39.9281 119.47 40.2208 119.781 40.2208C119.904 40.2208 119.999 40.1736 120.093 40.0036L120.197 40.0319Z" fill="black"/>
</svg>
