<svg width="82" height="82" viewBox="0 0 82 82" fill="none" xmlns="http://www.w3.org/2000/svg">
<path d="M0.875 41.0588C0.875 63.3702 19.1298 81.5236 41.5426 81.5236C63.9555 81.5236 82.0075 63.3702 82.0075 41.0588C82.0075 18.7473 63.8541 0.391113 41.5426 0.391113C19.2312 0.391113 0.875 18.6459 0.875 41.0588ZM27.953 8.50436V73.4103C15.1746 68.1367 6.25003 55.5612 6.25003 41.0588C6.25003 26.5563 15.1746 13.778 27.953 8.50436ZM76.6324 41.0588C76.6324 55.6626 67.7079 68.1367 55.0309 73.4103V8.50436C67.7079 13.778 76.6324 26.4549 76.6324 41.0588ZM65.781 49.2734C65.781 52.1131 64.7668 54.8513 62.7385 56.6768L66.5923 60.632C69.6348 57.5895 71.3588 53.5329 71.3588 49.2734C71.3588 45.1154 69.6348 41.1602 66.6937 38.1177C62.6371 33.9597 62.6371 27.2662 66.6937 23.1082L62.8399 19.2544C56.6536 25.4408 56.6536 35.4809 62.7385 41.6673C64.7668 43.6956 65.781 46.4338 65.781 49.2734ZM16.493 60.632L20.3468 56.6768C18.3185 54.7499 17.2029 52.0116 17.2029 49.2734C17.2029 46.4338 18.3185 43.6956 20.3468 41.6673C26.4317 35.4809 26.3303 25.4408 20.144 19.2544L16.2902 23.1082C20.4482 27.2662 20.4482 33.9597 16.2902 38.1177C13.3491 41.1602 11.7265 45.1154 11.7265 49.2734C11.7265 53.5329 13.4505 57.5895 16.493 60.632ZM41.5426 5.76614C42.1511 5.76614 42.6582 5.76614 43.2667 5.86755V76.0471C42.6582 76.0471 42.1511 76.0471 41.5426 76.0471C40.9342 76.0471 40.4271 76.0471 39.8186 76.0471V5.96897C40.3257 5.76614 40.9342 5.76614 41.5426 5.76614ZM47.3233 6.37463C48.4389 6.47605 49.5545 6.78029 50.67 7.08454V74.9316C49.5545 75.2358 48.4389 75.5401 47.3233 75.7429V6.37463ZM32.111 74.8301V7.08454C33.2266 6.88171 34.3421 6.47605 35.4577 6.37463V75.6415C34.3421 75.4386 33.2266 75.2358 32.111 74.8301Z" fill="#865E41"/>
<path d="M0.875 41.0588C0.875 63.3702 19.1298 81.5236 41.5426 81.5236C63.9555 81.5236 82.0075 63.3702 82.0075 41.0588C82.0075 18.7473 63.8541 0.391113 41.5426 0.391113C19.2312 0.391113 0.875 18.6459 0.875 41.0588ZM27.953 8.50436V73.4103C15.1746 68.1367 6.25003 55.5612 6.25003 41.0588C6.25003 26.5563 15.1746 13.778 27.953 8.50436ZM76.6324 41.0588C76.6324 55.6626 67.7079 68.1367 55.0309 73.4103V8.50436C67.7079 13.778 76.6324 26.4549 76.6324 41.0588ZM65.781 49.2734C65.781 52.1131 64.7668 54.8513 62.7385 56.6768L66.5923 60.632C69.6348 57.5895 71.3588 53.5329 71.3588 49.2734C71.3588 45.1154 69.6348 41.1602 66.6937 38.1177C62.6371 33.9597 62.6371 27.2662 66.6937 23.1082L62.8399 19.2544C56.6536 25.4408 56.6536 35.4809 62.7385 41.6673C64.7668 43.6956 65.781 46.4338 65.781 49.2734ZM16.493 60.632L20.3468 56.6768C18.3185 54.7499 17.2029 52.0116 17.2029 49.2734C17.2029 46.4338 18.3185 43.6956 20.3468 41.6673C26.4317 35.4809 26.3303 25.4408 20.144 19.2544L16.2902 23.1082C20.4482 27.2662 20.4482 33.9597 16.2902 38.1177C13.3491 41.1602 11.7265 45.1154 11.7265 49.2734C11.7265 53.5329 13.4505 57.5895 16.493 60.632ZM41.5426 5.76614C42.1511 5.76614 42.6582 5.76614 43.2667 5.86755V76.0471C42.6582 76.0471 42.1511 76.0471 41.5426 76.0471C40.9342 76.0471 40.4271 76.0471 39.8186 76.0471V5.96897C40.3257 5.76614 40.9342 5.76614 41.5426 5.76614ZM47.3233 6.37463C48.4389 6.47605 49.5545 6.78029 50.67 7.08454V74.9316C49.5545 75.2358 48.4389 75.5401 47.3233 75.7429V6.37463ZM32.111 74.8301V7.08454C33.2266 6.88171 34.3421 6.47605 35.4577 6.37463V75.6415C34.3421 75.4386 33.2266 75.2358 32.111 74.8301Z" fill="black" fill-opacity="0.8"/>
</svg>
